<svg width="24" height="24" viewBox="0 0 24 24" fill="none" xmlns="http://www.w3.org/2000/svg">
<path d="M12 3C9.61305 3 7.32387 3.94821 5.63604 5.63604C3.94821 7.32387 3 9.61305 3 12C3.00001 13.6524 3.45465 15.2729 4.31415 16.6841C5.17365 18.0953 6.40487 19.2428 7.873 20.001L6 20C5.74512 20.0003 5.49997 20.0979 5.31463 20.2728C5.1293 20.4478 5.01777 20.687 5.00283 20.9414C4.98789 21.1958 5.07067 21.4464 5.23426 21.6418C5.39786 21.8373 5.6299 21.9629 5.883 21.993L6 22H10C10.2449 22 10.4813 21.91 10.6644 21.7473C10.8474 21.5845 10.9643 21.3603 10.993 21.117L11 21V17C10.9997 16.7451 10.9021 16.5 10.7272 16.3146C10.5522 16.1293 10.313 16.0178 10.0586 16.0028C9.80416 15.9879 9.55362 16.0707 9.35817 16.2343C9.16271 16.3979 9.0371 16.6299 9.007 16.883L9 17L8.999 18.327C7.80242 17.7584 6.79159 16.8622 6.08377 15.7423C5.37596 14.6224 5.00017 13.3248 5 12C5 10.1435 5.7375 8.36301 7.05025 7.05025C8.36301 5.7375 10.1435 5 12 5C13.8565 5 15.637 5.7375 16.9497 7.05025C18.2625 8.36301 19 10.1435 19 12C19 12.2652 19.1054 12.5196 19.2929 12.7071C19.4804 12.8946 19.7348 13 20 13C20.2652 13 20.5196 12.8946 20.7071 12.7071C20.8946 12.5196 21 12.2652 21 12C21 9.61305 20.0518 7.32387 18.364 5.63604C16.6761 3.94821 14.3869 3 12 3ZM12 9C11.2044 9 10.4413 9.31607 9.87868 9.87868C9.31607 10.4413 9 11.2044 9 12C9 12.7956 9.31607 13.5587 9.87868 14.1213C10.4413 14.6839 11.2044 15 12 15C12.7956 15 13.5587 14.6839 14.1213 14.1213C14.6839 13.5587 15 12.7956 15 12C15 11.2044 14.6839 10.4413 14.1213 9.87868C13.5587 9.31607 12.7956 9 12 9ZM12 11C12.2652 11 12.5196 11.1054 12.7071 11.2929C12.8946 11.4804 13 11.7348 13 12C13 12.2652 12.8946 12.5196 12.7071 12.7071C12.5196 12.8946 12.2652 13 12 13C11.7348 13 11.4804 12.8946 11.2929 12.7071C11.1054 12.5196 11 12.2652 11 12C11 11.7348 11.1054 11.4804 11.2929 11.2929C11.4804 11.1054 11.7348 11 12 11Z" fill="#3CFFFF"/>
</svg>
