<svg width="21" height="20" viewBox="0 0 21 20" fill="none" xmlns="http://www.w3.org/2000/svg">
<g clip-path="url(#clip0)">
<path d="M20.4167 10.7386H17.5V14.3182L16.3333 13.524L15.1667 14.3182V10.7386H12.25C11.9292 10.7386 11.6667 11.0071 11.6667 11.3352V18.4943C11.6667 18.8224 11.9292 19.0909 12.25 19.0909H20.4167C20.7375 19.0909 21 18.8224 21 18.4943V11.3352C21 11.0071 20.7375 10.7386 20.4167 10.7386ZM6.41667 8.35227H14.5833C14.9042 8.35227 15.1667 8.08381 15.1667 7.75568V0.596591C15.1667 0.268466 14.9042 0 14.5833 0H11.6667V3.57955L10.5 2.78533L9.33333 3.57955V0H6.41667C6.09583 0 5.83333 0.268466 5.83333 0.596591V7.75568C5.83333 8.08381 6.09583 8.35227 6.41667 8.35227ZM8.75 10.7386H5.83333V14.3182L4.66667 13.524L3.5 14.3182V10.7386H0.583333C0.2625 10.7386 0 11.0071 0 11.3352V18.4943C0 18.8224 0.2625 19.0909 0.583333 19.0909H8.75C9.07083 19.0909 9.33333 18.8224 9.33333 18.4943V11.3352C9.33333 11.0071 9.07083 10.7386 8.75 10.7386Z" fill="#3CFFFF"/>
</g>
<defs>
<clipPath id="clip0">
<rect width="21" height="19.0909" fill="white"/>
</clipPath>
</defs>
</svg>
