<svg width="21" height="21" viewBox="0 0 21 21" fill="none" xmlns="http://www.w3.org/2000/svg">
<g clip-path="url(#clip0)">
<path d="M7.77786 5.28916C5.30343 7.84931 5.84339 12.098 8.67781 13.9801C8.77121 14.0421 8.89546 14.0298 8.97568 13.9514C9.5724 13.3684 10.0772 12.8036 10.5192 12.0854C10.5868 11.9755 10.5448 11.8329 10.4313 11.7714C9.99898 11.5372 9.56878 11.098 9.3266 10.6341L9.32631 10.6343C9.0362 10.0566 8.93744 9.40902 9.09103 8.74024C9.09119 8.74028 9.09135 8.74033 9.09152 8.74033C9.26825 7.88411 10.1875 7.08764 10.8895 6.35104C10.888 6.35055 10.8866 6.35001 10.8851 6.34952L13.5155 3.66483C14.5638 2.59495 16.288 2.58613 17.3471 3.64526C18.417 4.69347 18.4347 6.42642 17.3865 7.49626L15.7932 9.13466C15.7194 9.21049 15.6955 9.32112 15.73 9.42112C16.0969 10.4849 16.1871 11.9849 15.9413 13.1182C15.9344 13.1499 15.9735 13.1707 15.9962 13.1475L19.3872 9.68653C21.5534 7.47562 21.535 3.87595 19.3464 1.68728C17.1128 -0.546323 13.4765 -0.527735 11.2659 1.72852L7.79144 5.27464C7.78684 5.27948 7.78249 5.2844 7.77786 5.28916Z" fill="#3CFFFF"/>
<path d="M14.1172 14.4676C14.1172 14.4677 14.1171 14.4678 14.1171 14.468C14.1192 14.4671 14.1212 14.4662 14.1234 14.4653C14.8155 13.1998 14.9517 11.7485 14.6274 10.3337L14.6259 10.3352L14.6243 10.3345C14.3163 9.07439 13.4713 7.8231 12.3237 7.05268C12.2249 6.98641 12.0672 6.99409 11.9748 7.06885C11.3935 7.5389 10.8244 8.14164 10.449 8.91082C10.39 9.03159 10.4342 9.17664 10.5504 9.2441C10.9861 9.49708 11.3796 9.86745 11.6431 10.3592L11.6435 10.3589C11.8489 10.7062 12.0512 11.3653 11.9201 12.0735C11.9201 12.0735 11.9199 12.0735 11.9198 12.0735C11.7976 13.0124 10.8494 13.8736 10.0957 14.6496L10.0961 14.65C9.52236 15.2367 8.06388 16.7235 7.47989 17.3202C6.43168 18.39 4.69873 18.4077 3.62889 17.3595C2.55905 16.3113 2.54137 14.5783 3.58958 13.5085L5.18757 11.8651C5.25999 11.7907 5.28461 11.6824 5.2524 11.5837C4.89758 10.495 4.80037 9.0288 5.02433 7.89679C5.03057 7.86524 4.99175 7.84509 4.96922 7.86807L1.62926 11.277C-0.55916 13.5106 -0.540613 17.1472 1.67054 19.3583C3.90402 21.5466 7.52187 21.5096 9.71021 19.2762C10.4704 18.4258 13.7248 15.4127 14.1172 14.4676Z" fill="#3CFFFF"/>
</g>
<defs>
<clipPath id="clip0">
<rect width="21" height="21" fill="white"/>
</clipPath>
</defs>
</svg>
