<svg width="21" height="21" viewBox="0 0 21 21" fill="none" xmlns="http://www.w3.org/2000/svg">
<g clip-path="url(#clip0)">
<path d="M13.6258 5.82812H7.37427C6.52172 5.82812 5.82812 6.52172 5.82812 7.37427V13.6258C5.82812 14.4783 6.52172 15.1719 7.37427 15.1719H13.6258C14.4783 15.1719 15.1719 14.4783 15.1719 13.6258V7.37423C15.1719 6.52168 14.4783 5.82812 13.6258 5.82812ZM13.8414 13.6258C13.8414 13.7447 13.7447 13.8414 13.6258 13.8414H7.37427C7.2554 13.8414 7.15861 13.7447 7.15861 13.6258V7.37423C7.15861 7.25532 7.25536 7.15857 7.37427 7.15857H13.6258C13.7446 7.15857 13.8414 7.25532 13.8414 7.37423V13.6258Z" fill="#3CFFFF"/>
<path d="M20.3348 9.06661C20.7022 9.06661 21 8.76875 21 8.40137C21 8.03399 20.7022 7.73613 20.3348 7.73613H18.204V6.36619H20.3348C20.7022 6.36619 21 6.06833 21 5.70095C21 5.33357 20.7022 5.03571 20.3348 5.03571H18.1815C18.0311 3.88351 17.1164 2.96889 15.9643 2.81854V0.665241C15.9643 0.297862 15.6664 0 15.299 0C14.9316 0 14.6338 0.297862 14.6338 0.665241V2.79609H13.2638V0.665241C13.2638 0.297862 12.966 0 12.5986 0C12.2312 0 11.9333 0.297862 11.9333 0.665241V2.79609H9.06661V0.665241C9.06661 0.297862 8.76879 0 8.40137 0C8.03395 0 7.73613 0.297862 7.73613 0.665241V2.79609H6.36619V0.665241C6.36619 0.297862 6.06837 0 5.70095 0C5.33353 0 5.03571 0.297862 5.03571 0.665241V2.81854C3.88351 2.96889 2.96889 3.88351 2.8185 5.03571H0.665241C0.29782 5.03571 0 5.33357 0 5.70095C0 6.06833 0.29782 6.36619 0.665241 6.36619H2.79605V7.73613H0.665241C0.29782 7.73613 0 8.03399 0 8.40137C0 8.76875 0.29782 9.06661 0.665241 9.06661H2.79605V11.9334H0.665241C0.29782 11.9334 0 12.2312 0 12.5986C0 12.966 0.29782 13.2639 0.665241 13.2639H2.79605V14.6338H0.665241C0.29782 14.6338 0 14.9317 0 15.2991C0 15.6664 0.29782 15.9643 0.665241 15.9643H2.81854C2.96893 17.1165 3.88355 18.0311 5.03575 18.1815V20.3348C5.03575 20.7021 5.33357 21 5.70099 21C6.06841 21 6.36623 20.7021 6.36623 20.3348V18.2039H7.73617V20.3348C7.73617 20.7021 8.03399 21 8.40141 21C8.76884 21 9.06666 20.7021 9.06666 20.3348V18.2039H11.9334V20.3348C11.9334 20.7021 12.2312 21 12.5986 21C12.9661 21 13.2639 20.7021 13.2639 20.3348V18.2039H14.6338V20.3348C14.6338 20.7021 14.9316 21 15.2991 21C15.6665 21 15.9643 20.7021 15.9643 20.3348V18.1815C17.1165 18.0311 18.0311 17.1164 18.1815 15.9643H20.3348C20.7022 15.9643 21 15.6664 21 15.2991C21 14.9317 20.7022 14.6338 20.3348 14.6338H18.204V13.2639H20.3348C20.7022 13.2639 21 12.966 21 12.5986C21 12.2312 20.7022 11.9334 20.3348 11.9334H18.204V9.06661H20.3348ZM16.8735 15.6295C16.8735 16.3155 16.3155 16.8734 15.6295 16.8734H5.37045C4.68455 16.8734 4.12653 16.3154 4.12653 15.6295V5.37045C4.12653 4.68455 4.68455 4.12657 5.37045 4.12657H15.6295C16.3155 4.12657 16.8735 4.68459 16.8735 5.37045V15.6295Z" fill="#3CFFFF"/>
</g>
<defs>
<clipPath id="clip0">
<rect width="21" height="21" fill="white"/>
</clipPath>
</defs>
</svg>
