<svg width="21" height="19" viewBox="0 0 21 19" fill="none" xmlns="http://www.w3.org/2000/svg">
<path fill-rule="evenodd" clip-rule="evenodd" d="M10.5 0C16.299 0 21 1.86179 21 4.15842V14.5545V14.7624H20.9871C20.7136 16.9624 16.1229 18.7129 10.5 18.7129C4.87706 18.7129 0.286437 16.9624 0.0128965 14.7624H0V14.5545V4.15842C0 1.86179 4.70101 0 10.5 0ZM10.5 11.6436C14.5174 11.6436 17.9087 10.6343 18.9823 9.25248C19.2129 9.54928 19.3366 9.86326 19.3366 10.1881C19.3366 12.0254 15.3803 13.5149 10.5 13.5149C5.61966 13.5149 1.66337 12.0254 1.66337 10.1881C1.66337 9.86326 1.78705 9.54927 2.01766 9.25248C3.09131 10.6343 6.48257 11.6436 10.5 11.6436ZM18.9823 5.92574C17.9087 7.30754 14.5174 8.31683 10.5 8.31683C6.48257 8.31683 3.09131 7.30754 2.01766 5.92574C1.78705 6.22254 1.66337 6.53653 1.66337 6.86139C1.66337 8.69869 5.61966 10.1881 10.5 10.1881C15.3803 10.1881 19.3366 8.69869 19.3366 6.86139C19.3366 6.53653 19.2129 6.22254 18.9823 5.92574ZM10.5 14.9703C14.5174 14.9703 17.9087 13.961 18.9823 12.5792C19.2129 12.876 19.3366 13.19 19.3366 13.5149C19.3366 15.3522 15.3803 16.8416 10.5 16.8416C5.61966 16.8416 1.66337 15.3522 1.66337 13.5149C1.66337 13.19 1.78705 12.876 2.01766 12.5792C3.09131 13.961 6.48257 14.9703 10.5 14.9703Z" fill="#3CFFFF"/>
</svg>
