<svg width="21" height="17" viewBox="0 0 21 17" fill="none" xmlns="http://www.w3.org/2000/svg">
<path d="M14 4.5V0H1.3125C0.585156 0 0 0.355273 0 0.796875V16.2031C0 16.6447 0.585156 17 1.3125 17H19.6875C20.4148 17 21 16.6447 21 16.2031V5.3125H15.2633C14.5414 5.3125 14 4.93828 14 4.5ZM3.5 2.39062C3.5 2.24387 3.69578 2.125 3.9375 2.125H9.41784C9.65956 2.125 10 2.24387 10 2.39062V2.92188C10 3.06863 9.81655 3.1875 9.57483 3.1875H3.9375C3.69578 3.1875 3.5 3.06863 3.5 2.92188V2.39062ZM3.5 4.51562C3.5 4.36887 3.69578 4.25 3.9375 4.25H9.41784C9.65956 4.25 10 4.35324 10 4.5V5C10 5.14676 9.81655 5.3125 9.57483 5.3125H3.9375C3.69578 5.3125 3.5 5.19363 3.5 5.04688V4.51562ZM14.0443 12.75H16.625C17.1084 12.75 17.5 12.9877 17.5 13.2812C17.5 13.5748 17.1084 13.8125 16.625 13.8125H14.0443C13.1447 13.8125 12.3342 13.509 11.9312 13.0203C11.7698 12.8237 11.4887 12.8038 11.375 12.8038C11.2613 12.8038 10.9802 12.8234 10.827 13.0093L10.4076 13.5187C10.3349 13.6069 10.2232 13.6811 10.085 13.733C9.94678 13.7848 9.78748 13.8122 9.625 13.8122C9.60422 13.8122 9.58398 13.8115 9.56266 13.8105C9.20992 13.7956 8.90641 13.6528 8.79539 13.4489L7.875 11.7735L7.29477 12.832C6.97266 13.4184 6.07086 13.8125 5.05258 13.8125H4.375C3.89156 13.8125 3.5 13.5748 3.5 13.2812C3.5 12.9877 3.89156 12.75 4.375 12.75H5.05258C5.31672 12.75 5.55078 12.6477 5.63445 12.4957L6.62922 10.6814C6.80969 10.3557 7.30953 10.1366 7.875 10.1366C8.44047 10.1366 8.94031 10.3554 9.12023 10.6814L9.8793 12.064C10.9605 11.5265 12.8352 11.742 13.4887 12.5342C13.5991 12.669 13.8146 12.75 14.0443 12.75ZM20.6172 3.48633L16.5 0.5C16.2539 0.350586 15.85 0 15.5 0H15.2633V4.04746L21 4.25V4.04746C21 3.83828 20.8633 3.63574 20.6172 3.48633Z" fill="#3CFFFF"/>
</svg>
