<svg width="21" height="20" viewBox="0 0 21 20" fill="none" xmlns="http://www.w3.org/2000/svg">
<g clip-path="url(#clip0)">
<path d="M19.25 2.38636H14V5.96591H7V2.38636H1.75C0.783854 2.38636 0 3.18803 0 4.17614V17.3011C0 18.2892 0.783854 19.0909 1.75 19.0909H19.25C20.2161 19.0909 21 18.2892 21 17.3011V4.17614C21 3.18803 20.2161 2.38636 19.25 2.38636ZM10.5 8.35227C11.787 8.35227 12.8333 9.42241 12.8333 10.7386C12.8333 12.0549 11.787 13.125 10.5 13.125C9.21302 13.125 8.16667 12.0549 8.16667 10.7386C8.16667 9.42241 9.21302 8.35227 10.5 8.35227ZM13.9016 16.7045H7.09844C6.71927 16.7045 6.41302 16.3317 6.52969 15.9663C6.83229 15.0117 7.71094 14.3182 8.75 14.3182H9.04896C9.4974 14.5083 9.98594 14.6165 10.5 14.6165C11.0141 14.6165 11.5062 14.5083 11.951 14.3182H12.25C13.2854 14.3182 14.1641 15.008 14.4703 15.9663C14.587 16.3317 14.2807 16.7045 13.9016 16.7045V16.7045ZM12.8333 1.19318C12.8333 0.533203 12.312 0 11.6667 0H9.33333C8.68802 0 8.16667 0.533203 8.16667 1.19318V4.77273H12.8333V1.19318Z" fill="#3CFFFF"/>
</g>
<defs>
<clipPath id="clip0">
<rect width="21" height="19.0909" fill="white"/>
</clipPath>
</defs>
</svg>
