<svg width="21" height="17" viewBox="0 0 21 17" fill="none" xmlns="http://www.w3.org/2000/svg">
<g clip-path="url(#clip0)">
<path d="M0 15.65C0 16.2298 0.470203 16.7 1.05 16.7H19.95C20.5298 16.7 21 16.2298 21 15.65V5.15H0V15.65ZM14.7 8.825C14.7 8.53494 14.9349 8.3 15.225 8.3H18.375C18.6651 8.3 18.9 8.53494 18.9 8.825V9.875C18.9 10.1651 18.6651 10.4 18.375 10.4H15.225C14.9349 10.4 14.7 10.1651 14.7 9.875V8.825ZM14.7 12.7625C14.7 12.6175 14.8175 12.5 14.9625 12.5H18.6375C18.7825 12.5 18.9 12.6175 18.9 12.7625V13.2875C18.9 13.4325 18.7825 13.55 18.6375 13.55H14.9625C14.8175 13.55 14.7 13.4325 14.7 13.2875V12.7625ZM2.1 9.6125C2.1 9.46747 2.21747 9.35 2.3625 9.35H12.3375C12.4825 9.35 12.6 9.46747 12.6 9.6125V10.1375C12.6 10.2825 12.4825 10.4 12.3375 10.4H2.3625C2.21747 10.4 2.1 10.2825 2.1 10.1375V9.6125ZM2.1 12.7625C2.1 12.6175 2.21747 12.5 2.3625 12.5H8.1375C8.28253 12.5 8.4 12.6175 8.4 12.7625V13.2875C8.4 13.4325 8.28253 13.55 8.1375 13.55H2.3625C2.21747 13.55 2.1 13.4325 2.1 13.2875V12.7625ZM20.475 2H0.525C0.234937 2 0 2.23494 0 2.525V4.1H21V2.525C21 2.23494 20.7651 2 20.475 2Z" fill="#3CFFFF"/>
</g>
<defs>
<clipPath id="clip0">
<rect width="21" height="16.8" fill="white"/>
</clipPath>
</defs>
</svg>
