<svg width="21" height="21" viewBox="0 0 21 21" fill="none" xmlns="http://www.w3.org/2000/svg">
<path d="M11.3032 14.5137L8.09012 17.7268C8.09012 17.7268 8.09012 17.7269 8.09004 17.7269C8.09004 17.7269 8.09004 17.727 8.08997 17.727C6.76126 19.0558 4.59914 19.0559 3.27028 17.727C2.62652 17.0832 2.27208 16.2274 2.27208 15.3171C2.27208 14.4069 2.62652 13.5511 3.27005 12.9074C3.27013 12.9073 3.2702 12.9072 3.27028 12.9072L6.48338 9.69399C6.92697 9.25032 6.92697 8.53098 6.4833 8.0874C6.03972 7.64381 5.32038 7.64381 4.87672 8.0874L1.66362 11.3006C1.66339 11.3008 1.66316 11.3011 1.66294 11.3013C0.590589 12.3741 0 13.8002 0 15.3171C0 16.8343 0.590816 18.2607 1.66369 19.3336C2.7711 20.4409 4.22561 20.9946 5.6802 20.9946C7.13479 20.9946 8.58937 20.4409 9.69663 19.3336V19.3335C9.69671 19.3335 9.69671 19.3334 9.69671 19.3334L12.9098 16.1203C13.3534 15.6767 13.3534 14.9573 12.9097 14.5137C12.4662 14.0701 11.747 14.0701 11.3032 14.5137Z" fill="#FC3F4A"/>
<path d="M21 5.67748C21 4.16026 20.4091 2.73385 19.3362 1.66098C17.1215 -0.553696 13.5179 -0.553621 11.3033 1.66098C11.3032 1.66113 11.3031 1.6612 11.303 1.66135L8.08998 4.8743C7.64632 5.31789 7.64632 6.0373 8.08998 6.48089C8.31189 6.7028 8.60256 6.81367 8.89331 6.81367C9.18399 6.81367 9.47481 6.70272 9.69657 6.48089L12.9096 3.26794C12.9097 3.26779 12.9098 3.26771 12.91 3.26756C14.2387 1.93885 16.4008 1.93878 17.7297 3.26756C18.3733 3.91132 18.7279 4.76721 18.7279 5.67748C18.7279 6.58768 18.3735 7.44342 17.7299 8.08717C17.7298 8.08725 17.7297 8.08733 17.7297 8.0874L14.5166 11.3006C14.073 11.7442 14.073 12.4635 14.5166 12.9072C14.7385 13.129 15.0292 13.2399 15.3199 13.2399C15.6106 13.2399 15.9014 13.129 16.1232 12.9072L19.3363 9.69399C19.3365 9.69376 19.3368 9.69346 19.337 9.69323C20.4093 8.62051 21 7.19432 21 5.67748Z" fill="#FC3F4A"/>
<path d="M6.48353 14.5137C6.70536 14.7355 6.99611 14.8465 7.28679 14.8465C7.57754 14.8465 7.86829 14.7355 8.09012 14.5137L14.5165 8.08733C14.9601 7.64375 14.9601 6.9244 14.5165 6.48074C14.0729 6.03716 13.3535 6.03716 12.9099 6.48074L6.48353 12.907C6.03987 13.3508 6.03987 14.0701 6.48353 14.5137Z" fill="#FC3F4A"/>
</svg>
