<svg width="21" height="17" viewBox="0 0 21 17" fill="none" xmlns="http://www.w3.org/2000/svg">
<g clip-path="url(#clip0)">
<path d="M20.032 12.2489C20.1173 11.7862 20.1173 11.3137 20.032 10.8511L20.8786 10.3622C20.977 10.3064 21.0197 10.1916 20.9869 10.0833C20.767 9.37453 20.3897 8.73141 19.8975 8.19984C19.822 8.11781 19.7006 8.09812 19.6022 8.15391L18.7556 8.64281C18.398 8.33766 17.9878 8.10141 17.5448 7.94391V6.96609C17.5448 6.85453 17.4661 6.75609 17.3578 6.73312C16.6261 6.56906 15.8813 6.57562 15.1856 6.73312C15.0773 6.75609 14.9986 6.85453 14.9986 6.96609V7.94391C14.5556 8.10141 14.1455 8.33766 13.7878 8.64281L12.9413 8.15391C12.8461 8.09812 12.7214 8.11781 12.6459 8.19984C12.1538 8.73141 11.7764 9.37453 11.5566 10.0833C11.5238 10.1916 11.5697 10.3064 11.6648 10.3622L12.5114 10.8511C12.4261 11.3137 12.4261 11.7862 12.5114 12.2489L11.6648 12.7378C11.5664 12.7936 11.5238 12.9084 11.5566 13.0167C11.7764 13.7255 12.1538 14.3653 12.6459 14.9002C12.7214 14.9822 12.8428 15.0019 12.9413 14.9461L13.7878 14.4572C14.1455 14.7623 14.5556 14.9986 14.9986 15.1561V16.1339C14.9986 16.2455 15.0773 16.3439 15.1856 16.3669C15.9173 16.5309 16.6622 16.5244 17.3578 16.3669C17.4661 16.3439 17.5448 16.2455 17.5448 16.1339V15.1561C17.9878 14.9986 18.398 14.7623 18.7556 14.4572L19.6022 14.9461C19.6973 15.0019 19.822 14.9822 19.8975 14.9002C20.3897 14.3686 20.767 13.7255 20.9869 13.0167C21.0197 12.9084 20.9738 12.7936 20.8786 12.7378L20.032 12.2489V12.2489ZM16.275 13.1414C15.3956 13.1414 14.6836 12.4261 14.6836 11.55C14.6836 10.6739 15.3989 9.95859 16.275 9.95859C17.1511 9.95859 17.8664 10.6739 17.8664 11.55C17.8664 12.4261 17.1544 13.1414 16.275 13.1414ZM7.35 8.4C9.66984 8.4 11.55 6.51984 11.55 4.2C11.55 1.88016 9.66984 0 7.35 0C5.03016 0 3.15 1.88016 3.15 4.2C3.15 6.51984 5.03016 8.4 7.35 8.4ZM13.9519 15.832C13.8764 15.7927 13.8009 15.7467 13.7288 15.7041L13.4695 15.855C13.2727 15.9666 13.0495 16.0289 12.8264 16.0289C12.4688 16.0289 12.1242 15.878 11.8781 15.6155C11.2777 14.9658 10.8183 14.175 10.5591 13.3317C10.3786 12.7509 10.6214 12.1373 11.1464 11.8322L11.4056 11.6812C11.4023 11.5959 11.4023 11.5106 11.4056 11.4253L11.1464 11.2744C10.6214 10.9725 10.3786 10.3556 10.5591 9.77484C10.5886 9.67969 10.6313 9.58453 10.6641 9.48937C10.5394 9.47953 10.418 9.45 10.29 9.45H9.74203C9.01359 9.78469 8.20313 9.975 7.35 9.975C6.49688 9.975 5.68969 9.78469 4.95797 9.45H4.41C1.97531 9.45 0 11.4253 0 13.86V15.225C0 16.0945 0.705469 16.8 1.575 16.8H13.125C13.4564 16.8 13.7648 16.695 14.0175 16.5211C13.9781 16.3964 13.9519 16.2684 13.9519 16.1339V15.832Z" fill="#3CFFFF"/>
</g>
<defs>
<clipPath id="clip0">
<rect width="21" height="16.8" fill="white"/>
</clipPath>
</defs>
</svg>
